<svg xmlns="http://www.w3.org/2000/svg" viewBox="0 0 512 512" role="img" aria-labelledby="title">
  <title id="title">kuchniatwist icon</title>
  <rect width="512" height="512" rx="72" fill="#fbf7ef"/>
  <circle cx="256" cy="182" r="116" fill="#fffaf3" stroke="#eadcc3" stroke-width="22"/>
  <path d="M132 228c28 94 87 142 176 142s148-48 176-142H132Z" fill="#c8743f"/>
  <path d="M160 370h192" fill="none" stroke="#4f5525" stroke-width="28" stroke-linecap="round"/>
  <path d="M200 150c-28-42 24-54 0-96M256 150c-28-42 24-54 0-96M312 150c-28-42 24-54 0-96" fill="none" stroke="#4f5525" stroke-width="18" stroke-linecap="round"/>
  <path d="M326 170c52-15 94 2 126 48-56 13-98-3-126-48Zm-40-14c16-52 56-78 120-78-18 58-58 84-120 78Z" fill="#4f5525"/>
  <circle cx="210" cy="276" r="12" fill="#fbf7ef"/>
  <circle cx="256" cy="288" r="12" fill="#fbf7ef"/>
  <circle cx="302" cy="276" r="12" fill="#fbf7ef"/>
</svg>
